<?xml version="1.0" ?><!-- Uploaded to: SVG Repo, www.svgrepo.com, Generator: SVG Repo Mixer Tools -->
<svg fill="#000000" width="800px" height="800px" viewBox="0 0 32 32" id="OBJECT" xmlns="http://www.w3.org/2000/svg"><title/><path d="M17.67,22.11a4.8,4.8,0,0,0-1.17.5l-.49.28a2.23,2.23,0,0,1-3-.69.68.68,0,0,0-.6-.33.75.75,0,0,0-.73.54,8.32,8.32,0,0,0-.37,2.39A7.72,7.72,0,0,0,11.66,27L12,27a10.9,10.9,0,0,0,7.55-3A10.68,10.68,0,0,1,17.67,22.11Z"/><path d="M14.27,21.39a.75.75,0,0,0,1,.23l.49-.28a5.25,5.25,0,0,1,1-.48A12.13,12.13,0,0,1,15,14.5a3.1,3.1,0,0,1,0-.43,2.43,2.43,0,0,1-.3-.34,2.89,2.89,0,0,1-.53-2.31,5.31,5.31,0,0,0-1.53-5L11.18,5A10.89,10.89,0,0,0,6.59,6.39a6.33,6.33,0,0,1,.54,4.68A5,5,0,0,0,7,12.36,4.88,4.88,0,0,0,8.1,15.49l.15.19a6.3,6.3,0,0,1,1.3,5.48L8.37,26.37a10.23,10.23,0,0,0,1.73.45,9.13,9.13,0,0,1-.23-2A9.29,9.29,0,0,1,10.32,22a2.23,2.23,0,0,1,2.12-1.57A2.15,2.15,0,0,1,14.27,21.39Z"/><path d="M15.77,10.24a11.36,11.36,0,0,1,2.08-3.58,10.85,10.85,0,0,0-4.52-1.61l.36.34A6.91,6.91,0,0,1,15.77,10.24Z"/><path d="M7,16.44A6.38,6.38,0,0,1,5.5,12.36a6.3,6.3,0,0,1,.22-1.68,4.9,4.9,0,0,0-.36-3.47A11,11,0,0,0,7,25.78l1.12-5h0a4.81,4.81,0,0,0-1-4.21Z"/><path d="M31,14.5a9.84,9.84,0,0,0-6.69-9.45.94.94,0,0,0-.62,0A9.84,9.84,0,0,0,17,14.5a9.86,9.86,0,0,0,6,9.19V26a1,1,0,0,0,2,0V23.69A9.86,9.86,0,0,0,31,14.5Z"/></svg>